<?xml version="1.0" encoding="utf-8"?>
<!-- Generator: Adobe Illustrator 21.1.0, SVG Export Plug-In . SVG Version: 6.00 Build 0)  -->
<svg version="1.1" xmlns="http://www.w3.org/2000/svg" xmlns:xlink="http://www.w3.org/1999/xlink" x="0px" y="0px"
	 width="385.0443px" height="77.1924px" viewBox="0 0 385.0443 77.1924" style="enable-background:new 0 0 385.0443 77.1924;"
	 xml:space="preserve">
<style type="text/css">
	.st0{fill:#5D9CEC;}
</style>
<g id="Layer_2">
</g>
<g id="Layer_1">
	<g>
		<path d="M45.5241,7.755c0.709,0.71,1.064,1.647,1.064,2.812v34.6558c0,3.9521-0.9248,7.5371-2.7739,10.7544
			c-1.8501,3.2178-4.3579,5.751-7.5239,7.5996c-3.167,1.8501-6.7012,2.7744-10.6021,2.7744c-3.9023,0-7.4609-0.9243-10.6782-2.7744
			c-3.2178-1.8486-5.7378-4.3818-7.5615-7.5996c-1.8242-3.2173-2.7363-6.8022-2.7363-10.7544c0-3.9517,0.8481-7.5356,2.5459-10.7539
			c1.6973-3.2168,4.0283-5.7378,6.9922-7.562c2.9639-1.8237,6.27-2.7358,9.918-2.7358c2.938,0,5.6738,0.6079,8.208,1.8242
			c2.5332,1.2158,4.686,2.9141,6.46,5.0918v-20.52c0-1.165,0.3672-2.1021,1.1021-2.812c0.7339-0.709,1.6592-1.064,2.7739-1.064
			C43.8771,6.691,44.8141,7.046,45.5241,7.755z M32.5661,57.6491c2.0522-1.2412,3.6602-2.9512,4.8262-5.1299
			c1.165-2.1782,1.748-4.6099,1.748-7.2964c0-2.6846-0.583-5.1035-1.748-7.2578c-1.166-2.1528-2.7739-3.8496-4.8262-5.0918
			c-2.0518-1.2412-4.3452-1.8623-6.8779-1.8623c-2.5342,0-4.8262,0.6211-6.8779,1.8623c-2.0522,1.2422-3.6743,2.939-4.8643,5.0918
			c-1.1909,2.1543-1.7856,4.5732-1.7856,7.2578c0,2.6865,0.5947,5.1182,1.7856,7.2964c1.1899,2.1787,2.812,3.8887,4.8643,5.1299
			c2.0518,1.2422,4.3438,1.8618,6.8779,1.8618C28.2209,59.5109,30.5143,58.8912,32.5661,57.6491z"/>
		<path d="M61.3693,16.2291c-0.9878-0.9883-1.4819-2.166-1.4819-3.5342s0.4941-2.5459,1.4819-3.5342
			c0.9883-0.9878,2.166-1.4819,3.5342-1.4819c1.3682,0,2.5459,0.4941,3.5337,1.4819c0.9883,0.9883,1.4824,2.166,1.4824,3.5342
			s-0.4941,2.5459-1.4824,3.5342c-0.9878,0.9878-2.1655,1.4819-3.5337,1.4819C63.5353,17.7111,62.3576,17.2169,61.3693,16.2291z
			 M62.1296,64.9449c-0.7354-0.7339-1.1021-1.6587-1.1021-2.7739V28.3512c0-1.165,0.3667-2.1021,1.1021-2.812
			c0.7339-0.709,1.6587-1.064,2.7739-1.064c1.165,0,2.1016,0.355,2.812,1.064c0.709,0.71,1.064,1.647,1.064,2.812V62.171
			c0,1.1152-0.355,2.04-1.064,2.7739c-0.7104,0.7354-1.647,1.1021-2.812,1.1021C63.7882,66.047,62.8634,65.6803,62.1296,64.9449z"/>
		<path d="M103.2448,59.5109c0.6328,0.7104,0.9497,1.6221,0.9497,2.7363c0,1.1147-0.418,2.0269-1.2539,2.7358
			c-0.8359,0.71-1.9131,1.064-3.23,1.064h-1.3682c-2.4829,0-4.75-0.646-6.8018-1.938c-2.0522-1.292-3.6611-3.0518-4.8262-5.2822
			c-1.166-2.2285-1.748-4.7368-1.748-7.5239v-18.772h-3.4961c-1.064,0-1.9258-0.3037-2.584-0.9121
			c-0.6587-0.6079-0.9878-1.3677-0.9878-2.2798c0-1.0127,0.3291-1.8242,0.9878-2.4321c0.6582-0.6079,1.52-0.9116,2.584-0.9116
			h3.4961V15.0509c0-1.1138,0.354-2.0259,1.064-2.7358c0.709-0.709,1.6211-1.064,2.7363-1.064c1.1138,0,2.0259,0.355,2.7358,1.064
			c0.709,0.71,1.064,1.6221,1.064,2.7358v10.9443h6.46c1.064,0,1.9248,0.3037,2.584,0.9116
			c0.6577,0.6079,0.9883,1.4194,0.9883,2.4321c0,0.9121-0.3306,1.6719-0.9883,2.2798c-0.6592,0.6084-1.52,0.9121-2.584,0.9121h-6.46
			v18.772c0,2.0273,0.5571,3.7241,1.6719,5.0923c1.1138,1.3677,2.4819,2.0518,4.104,2.0518h2.584
			C101.8385,58.4469,102.6105,58.8019,103.2448,59.5109z"/>
		<path d="M165.4118,26.945c3.166,1.8501,5.6738,4.3833,7.5239,7.6001c1.8491,3.2183,2.7739,6.8018,2.7739,10.7539v16.9482
			c0,1.1147-0.3682,2.04-1.1021,2.7739c-0.7349,0.7349-1.6602,1.1021-2.7739,1.1021c-1.1147,0-2.04-0.3672-2.7739-1.1021
			c-0.7349-0.7339-1.1021-1.6592-1.1021-2.7739v-2.812c-1.7739,2.1787-3.9268,3.876-6.46,5.0918
			c-2.5342,1.2158-5.27,1.8242-8.208,1.8242c-3.6479,0-6.9541-0.9121-9.918-2.7363c-2.9639-1.8237-5.2949-4.3438-6.9922-7.562
			c-1.6978-3.2168-2.5459-6.8018-2.5459-10.7539s0.9121-7.5356,2.7363-10.7539c1.8237-3.2168,4.3438-5.75,7.5615-7.6001
			c3.2173-1.8491,6.7759-2.7739,10.6782-2.7739C158.7106,24.171,162.2448,25.0958,165.4118,26.945z M161.6877,57.6491
			c2.0522-1.2412,3.6602-2.938,4.8262-5.0923c1.165-2.1528,1.748-4.5718,1.748-7.2578c0-2.6851-0.583-5.1167-1.748-7.2959
			c-1.166-2.1777-2.7739-3.8877-4.8262-5.1299c-2.0518-1.2412-4.3452-1.8623-6.8779-1.8623c-2.5342,0-4.8262,0.6211-6.8779,1.8623
			c-2.0522,1.2422-3.6743,2.9521-4.8643,5.1299c-1.1909,2.1792-1.7856,4.6108-1.7856,7.2959c0,2.686,0.5947,5.105,1.7856,7.2578
			c1.1899,2.1543,2.812,3.8511,4.8643,5.0923c2.0518,1.2422,4.3438,1.8618,6.8779,1.8618
			C157.3425,59.5109,159.6359,58.8912,161.6877,57.6491z"/>
		<path d="M191.2511,64.2609c-1.748-1.1899-3.104-2.8618-4.0659-5.0156c-0.9634-2.1533-1.4443-4.5723-1.4443-7.2583V10.4908
			c0-1.1138,0.354-2.0259,1.064-2.7358c0.709-0.709,1.6211-1.064,2.7363-1.064c1.1138,0,2.0259,0.355,2.7358,1.064
			c0.709,0.71,1.064,1.6221,1.064,2.7358v41.4961c0,1.875,0.354,3.4199,1.064,4.6362c0.709,1.2158,1.6211,1.8237,2.7363,1.8237
			h1.8999c1.0127,0,1.8359,0.355,2.4697,1.064c0.6333,0.7104,0.9502,1.6221,0.9502,2.7363c0,1.1147-0.4819,2.0269-1.4438,2.7358
			c-0.9634,0.71-2.2041,1.064-3.7241,1.064h-0.1519C194.9621,66.047,192.9992,65.4523,191.2511,64.2609z"/>
		<path d="M242.3981,26.9069c2.9639,1.8242,5.2935,4.3452,6.9917,7.562c1.6968,3.2183,2.5459,6.8022,2.5459,10.7539
			c0,3.9521-0.9116,7.5371-2.7358,10.7544c-1.8242,3.2178-4.3452,5.751-7.562,7.5996c-3.2183,1.8501-6.7769,2.7744-10.6777,2.7744
			c-3.9023,0-7.4365-0.9243-10.6021-2.7744c-3.1675-1.8486-5.6753-4.3818-7.5244-7.5996
			c-1.8501-3.2173-2.7739-6.8022-2.7739-10.7544V10.567c0-1.165,0.3672-2.1021,1.1021-2.812c0.7339-0.709,1.6592-1.064,2.7739-1.064
			c1.165,0,2.1021,0.355,2.812,1.064c0.709,0.71,1.064,1.647,1.064,2.812v20.52c1.7729-2.1777,3.9263-3.876,6.46-5.0918
			c2.5332-1.2163,5.269-1.8242,8.208-1.8242C236.1281,24.171,239.4338,25.0831,242.3981,26.9069z M237.8381,57.6491
			c2.0518-1.2412,3.6729-2.9512,4.8638-5.1299c1.1899-2.1782,1.7861-4.6099,1.7861-7.2964c0-2.6846-0.5962-5.1035-1.7861-7.2578
			c-1.1909-2.1528-2.812-3.8496-4.8638-5.0918c-2.0522-1.2412-4.3452-1.8623-6.8779-1.8623c-2.5342,0-4.8262,0.6211-6.8784,1.8623
			c-2.0518,1.2422-3.6606,2.939-4.8257,5.0918c-1.166,2.1543-1.748,4.5732-1.748,7.2578c0,2.6865,0.582,5.1182,1.748,7.2964
			c1.165,2.1787,2.7739,3.8887,4.8257,5.1299c2.0522,1.2422,4.3442,1.8618,6.8784,1.8618
			C233.4928,59.5109,235.7858,58.8912,237.8381,57.6491z"/>
		<path d="M300.5753,25.463c0.7085,0.71,1.064,1.647,1.064,2.812v33.896c0,1.1152-0.3555,2.04-1.064,2.7739
			c-0.7104,0.7354-1.6475,1.1021-2.812,1.1021c-1.1152,0-2.0405-0.3667-2.7744-1.1021c-0.7349-0.7339-1.1016-1.6587-1.1016-2.7739
			v-0.8359c-1.6226,1.6221-3.5474,2.876-5.7764,3.7617c-2.23,0.8872-4.6108,1.3301-7.144,1.3301
			c-3.4956,0-6.6382-0.7598-9.4238-2.2798c-2.7871-1.52-4.9663-3.7358-6.5361-6.6499c-1.5708-2.9131-2.356-6.4224-2.356-10.5264
			V28.275c0-1.1138,0.3672-2.0391,1.1021-2.7739c0.7339-0.7339,1.6592-1.1021,2.7739-1.1021c1.1138,0,2.0391,0.3682,2.7739,1.1021
			c0.7339,0.7349,1.1021,1.6602,1.1021,2.7739v18.6958c0,4.104,1.1021,7.2085,3.3062,9.3101
			c2.2041,2.103,5.1299,3.1543,8.7778,3.1543c2.1279,0,4.0659-0.4302,5.814-1.292c1.748-0.8613,3.1162-2.0259,4.104-3.4961
			c0.9883-1.4692,1.4824-3.1162,1.4824-4.9399V28.275c0-1.165,0.3667-2.1021,1.1016-2.812c0.7339-0.709,1.6592-1.064,2.7744-1.064
			C298.9279,24.3991,299.8649,24.754,300.5753,25.463z"/>
		<path d="M369.6964,28.4269c2.71,2.8882,4.0664,6.916,4.0664,12.084v21.7363c0,1.1147-0.3555,2.04-1.064,2.7739
			c-0.7104,0.7349-1.6475,1.1021-2.812,1.1021c-1.1152,0-2.0405-0.3672-2.7744-1.1021c-0.7349-0.7339-1.1016-1.6592-1.1016-2.7739
			V40.5109c0-3.0898-0.7734-5.4341-2.3184-7.0298c-1.5459-1.5962-3.6099-2.394-6.1938-2.394c-2.6353,0-4.8013,0.9121-6.498,2.7358
			c-1.6982,1.8242-2.5459,4.1553-2.5459,6.9922v21.4321c0,1.1147-0.355,2.04-1.064,2.7739c-0.7104,0.7349-1.647,1.1021-2.812,1.1021
			c-1.1152,0-2.04-0.3672-2.7739-1.1021c-0.7354-0.7339-1.1021-1.6592-1.1021-2.7739V40.5109c0-3.0898-0.7729-5.4341-2.3184-7.0298
			c-1.5459-1.5962-3.6099-2.394-6.1938-2.394c-2.686,0-4.877,0.9121-6.5737,2.7358c-1.6982,1.8242-2.5464,4.1553-2.5464,6.9922
			v21.4321c0,1.1147-0.355,2.04-1.064,2.7739c-0.71,0.7349-1.647,1.1021-2.812,1.1021c-1.1147,0-2.04-0.3672-2.7739-1.1021
			c-0.7349-0.7339-1.1021-1.6592-1.1021-2.7739V28.4269c0-1.165,0.3672-2.1016,1.1021-2.812c0.7339-0.709,1.6592-1.064,2.7739-1.064
			c1.1143,0,2.0259,0.3423,2.7363,1.0259c0.709,0.6841,1.0889,1.5845,1.1396,2.6982c1.3174-1.3169,2.8882-2.3428,4.7124-3.0781
			c1.8237-0.7339,3.7998-1.1021,5.9277-1.1021c2.584,0,4.9019,0.5205,6.9541,1.5581c2.0518,1.0391,3.7358,2.521,5.0542,4.4458
			c1.5195-1.8735,3.4199-3.3438,5.6997-4.4077c2.2803-1.064,4.813-1.5962,7.6001-1.5962
			C363.4269,24.0949,366.9855,25.5392,369.6964,28.4269z"/>
	</g>
	<path class="st0" d="M32.5658,57.5607c2.0522-1.2412,3.6602-2.9512,4.8262-5.1299c1.165-2.1782,1.748-4.6099,1.748-7.2964
		c0-2.6846-0.583-5.1035-1.748-7.2578c-1.166-2.1528-2.7739-3.8496-4.8262-5.0918c-2.0518-1.2412-4.3452-1.8623-6.8779-1.8623
		c-2.5342,0-4.8262,0.6211-6.8779,1.8623c-2.0522,1.2422-3.6743,2.939-4.8643,5.0918c-1.1909,2.1543-1.7856,4.5732-1.7856,7.2578
		c0,2.6865,0.5947,5.1182,1.7856,7.2964c1.1899,2.1787,2.812,3.8887,4.8643,5.1299c2.0518,1.2422,4.3438,1.8618,6.8779,1.8618
		C28.2206,59.4226,30.5141,58.8029,32.5658,57.5607z"/>
</g>
</svg>
